<svg width="40" height="40" viewBox="0 0 40 40" fill="none" xmlns="http://www.w3.org/2000/svg">
<path d="M11.75 24.9219H28.25C28.5003 24.9219 28.7417 25.0087 28.9336 25.166L29.0127 25.2373C29.2149 25.4395 29.3281 25.7141 29.3281 26C29.3281 26.2503 29.2413 26.4917 29.084 26.6836L29.0127 26.7627C28.8105 26.9649 28.5359 27.0781 28.25 27.0781H11.75C11.4997 27.0781 11.2583 26.9913 11.0664 26.834L10.9873 26.7627C10.7851 26.5605 10.6719 26.2859 10.6719 26C10.6719 25.7497 10.7587 25.5083 10.916 25.3164L10.9873 25.2373C11.1895 25.0351 11.4641 24.9219 11.75 24.9219ZM11.75 18.9219H28.25C28.5003 18.9219 28.7417 19.0087 28.9336 19.166L29.0127 19.2373C29.2149 19.4395 29.3281 19.7141 29.3281 20C29.3281 20.2503 29.2413 20.4917 29.084 20.6836L29.0127 20.7627C28.8105 20.9649 28.5359 21.0781 28.25 21.0781H11.75C11.4997 21.0781 11.2583 20.9913 11.0664 20.834L10.9873 20.7627C10.7851 20.5605 10.6719 20.2859 10.6719 20C10.6719 19.7497 10.7587 19.5083 10.916 19.3164L10.9873 19.2373C11.1895 19.0351 11.4641 18.9219 11.75 18.9219ZM11.75 12.9219H28.25C28.5003 12.9219 28.7417 13.0087 28.9336 13.166L29.0127 13.2373C29.2149 13.4395 29.3281 13.7141 29.3281 14C29.3281 14.2503 29.2413 14.4917 29.084 14.6836L29.0127 14.7627C28.8105 14.9649 28.5359 15.0781 28.25 15.0781H11.75C11.4997 15.0781 11.2583 14.9913 11.0664 14.834L10.9873 14.7627C10.7851 14.5605 10.6719 14.2859 10.6719 14C10.6719 13.7497 10.7587 13.5083 10.916 13.3164L10.9873 13.2373C11.1895 13.0351 11.4641 12.9219 11.75 12.9219Z" fill="#475569" stroke="#475569" stroke-width="0.09375"/>
</svg>
