<svg width="40" height="40" viewBox="0 0 40 40" fill="none" xmlns="http://www.w3.org/2000/svg">
<path d="M18.2117 9.90784C20.255 9.841 22.2501 10.5051 23.8425 11.7731L24.156 12.0348C25.6931 13.3829 26.6956 15.2316 26.991 17.2457L27.0408 17.651C27.2544 19.8212 26.634 21.9913 25.3064 23.7213L25.282 23.7545L25.3103 23.7828L29.7625 28.2369L29.7957 28.2037L29.7625 28.2379L29.7683 28.2418C29.8678 28.3418 29.9468 28.4602 30.0007 28.5905C30.055 28.7214 30.0827 28.8618 30.0828 29.0035C30.0828 29.1452 30.0549 29.2857 30.0007 29.4166C29.9465 29.5477 29.8667 29.6669 29.7664 29.7672C29.6661 29.8675 29.5468 29.9473 29.4158 30.0016C29.2848 30.0558 29.1444 30.0836 29.0027 30.0836C28.8609 30.0836 28.7206 30.0558 28.5896 30.0016C28.4913 29.9609 28.4 29.9057 28.3181 29.8385L28.239 29.7672L23.783 25.3102L23.7546 25.2819L23.7214 25.3063C22.0994 26.551 20.0905 27.1741 18.0574 27.0709L17.6511 27.0406C15.6164 26.8403 13.7246 25.9208 12.3113 24.4557L12.0349 24.1559C10.6869 22.6189 9.93419 20.6551 9.90405 18.6198L9.90796 18.2115C9.97484 16.168 10.7677 14.2197 12.1375 12.7135L12.4187 12.4186C13.8645 10.9728 15.7752 10.0933 17.8044 9.9303L18.2117 9.90784ZM19.7527 12.2018C18.585 11.9696 17.3775 12.0667 16.2644 12.4801L16.0427 12.567C14.9427 13.0227 13.9925 13.7746 13.2966 14.7369L13.1609 14.9323C12.4553 15.9882 12.078 17.2296 12.0779 18.4996L12.0867 18.818C12.1615 20.2991 12.7465 21.709 13.7419 22.8082L13.9607 23.0387C15.0893 24.1673 16.5948 24.8334 18.1814 24.9137L18.4998 24.9215C19.6905 24.9215 20.8567 24.5912 21.8679 23.9684L22.0681 23.8395C23.0581 23.178 23.8429 22.255 24.3376 21.1754L24.4333 20.9576C24.889 19.8575 25.029 18.6537 24.8406 17.4811L24.7986 17.2467C24.5662 16.079 24.0139 15.0007 23.2058 14.1305L23.0408 13.9586C22.1988 13.1168 21.1404 12.5272 19.9851 12.2526L19.7527 12.2018Z" fill="#475569" stroke="#475569" stroke-width="0.09375"/>
</svg>
